# xmcd
#
# Track frame offsets: 
#        150
#        9465
#        18240
#        29265
#        39395
#        52607
#        65372
#        76307
#        86367
#        98052
#        107812
#        120257
#        133515
#        147330
#        163747
#        177690
#        187895
#        197490
#        206977
#        219422
#        230007
#        241140
#        250682
#        260940
#
# Disc length: 3616 seconds
#
# Revision: 0
# Processed by: cddbd v1.4PL0 Copyright (c) Steve Scherf et al.
# Submitted via: ExactAudioCopy v0.90b4
#
DISCID=400e1e18
DTITLE=Various Artist - Drink Up and Go Home!  Sun Country Vol.2
DYEAR=1996
DGENRE=Country
TTITLE0=Charlie Feathers - Runnin' Around
TTITLE1=Charlie Feathers - Man In Love
TTITLE2=Rhythm Rockers - Fiddle Bop
TTITLE3=Rhythm Rockers - Jukebox Help Me Find My Baby
TTITLE4=Maggie Sue Wimberly - Daydreams Come True
TTITLE5=Maggie Sue Wimberly - How Long
TTITLE6=Jimmy Haggett - No More, No More
TTITLE7=Jimmy Haggett - They Call Our Love A Sin
TTITLE8=Earl Peterson (Michigan's Singing Cowboy) - In The Dark
TTITLE9=Mack Self - Everyday
TTITLE10=Jack Earls - A Fool For Lovin' You
TTITLE11=Howard Serratt - I Must Be Saved
TTITLE12=Billy Talylor with The Snearly Ranch Boys
TTITLE13=Drink Up And Go Home - Carl Perkins
TTITLE14=Carl Perkins - Breaking My Heart
TTITLE15=The Ripley Cotton Choppers - Silver Bell
TTITLE16=Ernie Chaffin - Lonesome For My Baby
TTITLE17=Ernie Chaffin - Laughin' and Jokin'
TTITLE18=Ernie Chaffin - I'm Lonesome
TTITLE19=Slim Rhodes - Gonna Romp and Stomp
TTITLE20=Slim Rhodes - Bad Girl
TTITLE21=The Dixieland Drifters - I'm Gonna Find Her
TTITLE22=Johnny Cash - I Was There When It Happened
TTITLE23=Onie Wheeler - Jump Right Out Of The Jukebox
EXTD=
EXTT0=
EXTT1=
EXTT2=
EXTT3=
EXTT4=
EXTT5=
EXTT6=
EXTT7=
EXTT8=
EXTT9=
EXTT10=
EXTT11=
EXTT12=
EXTT13=
EXTT14=
EXTT15=
EXTT16=
EXTT17=
EXTT18=
EXTT19=
EXTT20=
EXTT21=
EXTT22=
EXTT23=
PLAYORDER=
